# xmcd
#
# Track frame offsets:
#	150
#	17475
#	36044
#	49052
#	59177
#	70878
#	83929
#	94053
#	107327
#	120693
#	134404
#	144052
#	161706
#	173048
#	183968
#	197556
#	208357
#	217432
#	229319
#	241883
#
# Disc length: 3385 seconds
#
# Revision: 0
# Processed by: cddbd v1.5PL3 Copyright (c) Steve Scherf et al.
# Submitted via: dBpowerAMP V4.0
#
DISCID=250d3714
DTITLE=Johnny Paycheck - Sunday Morning Coming Down
DYEAR=2003
DGENRE=Country
TTITLE0=Billy Jack Washburn
TTITLE1=Sunday Morning Coming Down
TTITLE2=Talk About Me
TTITLE3=I Want To Go Somewhere
TTITLE4=I'm Not Looking Back Anymore
TTITLE5=Talk To My Children's Mama
TTITLE6=Greater Love Hath No Man
TTITLE7=Honky Tonk And Slow Music
TTITLE8=Nowhere To Run
TTITLE9=I Feel Like Crying
TTITLE10=I'm Remembering
TTITLE11=Coming Home To My Heart
TTITLE12=Make Me One More Memory
TTITLE13=I'm A Coward
TTITLE14=Keeping Up With The Joneses
TTITLE15=I Don't Know When That Will Be
TTITLE16=The Johnsons Of Turkey Ridge
TTITLE17=Down At The Corner At A Bar Called Kelly's
TTITLE18=Bayou Bum
TTITLE19=There's No Easy Way To Die
EXTD=
EXTT0=
EXTT1=
EXTT2=
EXTT3=
EXTT4=
EXTT5=
EXTT6=
EXTT7=
EXTT8=
EXTT9=
EXTT10=
EXTT11=
EXTT12=
EXTT13=
EXTT14=
EXTT15=
EXTT16=
EXTT17=
EXTT18=
EXTT19=
PLAYORDER=
